<svg id="SvgjsSvg1001" width="288" height="288" xmlns="http://www.w3.org/2000/svg" version="1.1" xmlns:xlink="http://www.w3.org/1999/xlink" xmlns:svgjs="http://svgjs.com/svgjs"><defs id="SvgjsDefs1002"></defs><g id="SvgjsG1008" transform="matrix(0.9167,0,0,0.9167,11.995200000000011,11.995206434726725)"><svg xmlns="http://www.w3.org/2000/svg" width="288" height="288" enable-background="new 0 0 512 512" viewBox="0 0 512 512"><path d="M442.916 396.921c-28.67-81.325-59.178-170.917-186.916-170.917-56.898 0-99.567 17.909-130.446 54.751-26.783 31.955-41.203 72.859-56.47 116.166-17.916 50.964 26.102 100.847 78.111 90.856 43.022-8.274 102.11-22.214 186.562-5.971l31.047 5.971c51.461 9.894 96.179-39.463 78.112-90.856zm-72.445 61.395c-43.913-8.445-107.638-23.326-197.894-5.971l-31.047 5.971c-29.322 5.64-54.38-22.465-44.152-51.421 28.543-80.967 53.194-150.891 158.622-150.891s130.079 69.925 158.623 150.892c10.238 28.983-14.867 57.059-44.152 51.42zM381.941 156.168c22.746-30.326 22.765-78.158 0-108.51-24.724-32.966-67.164-32.958-91.882 0-22.746 30.326-22.765 78.158 0 108.51 24.724 32.966 67.164 32.958 91.882 0zm-45.941-103.255c17.888 0 33 22.439 33 49s-15.112 49-33 49-33-22.439-33-49 15.112-49 33-49zM221.941 156.168c22.746-30.326 22.765-78.158 0-108.51-24.724-32.966-67.163-32.958-91.882 0-22.746 30.326-22.765 78.158 0 108.51 24.724 32.966 67.164 32.958 91.882 0zm-45.941-103.255c17.888 0 33 22.439 33 49s-15.112 49-33 49-33-22.439-33-49 15.112-49 33-49zM110 205.913c0-30.327-24.673-55-55-55s-55 24.673-55 55 24.673 55 55 55 55-24.673 55-55zm-55 25c-13.785 0-25-11.215-25-25s11.215-25 25-25 25 11.215 25 25-11.215 25-25 25zM457 150.913c-30.327 0-55 24.673-55 55s24.673 55 55 55 55-24.673 55-55-24.673-55-55-55zm0 80c-13.785 0-25-11.215-25-25s11.215-25 25-25 25 11.215 25 25-11.215 25-25 25z" fill="#59a7f5" class="color000 svgShape"></path><path d="m296 342.913h-25v-25c0-8.284-6.716-15-15-15s-15 6.716-15 15v25h-25c-8.284 0-15 6.716-15 15s6.716 15 15 15h25v25c0 8.284 6.716 15 15 15s15-6.716 15-15v-25h25c8.284 0 15-6.716 15-15s-6.716-15-15-15z" fill="#59a7f5" class="color000 svgShape"></path></svg></g></svg>