<svg id="SvgjsSvg1001" width="288" height="288" xmlns="http://www.w3.org/2000/svg" version="1.1" xmlns:xlink="http://www.w3.org/1999/xlink" xmlns:svgjs="http://svgjs.com/svgjs"><defs id="SvgjsDefs1002"></defs><g id="SvgjsG1008" transform="matrix(0.9167,0,0,0.9167,11.994946900749198,11.995201030766538)"><svg xmlns="http://www.w3.org/2000/svg" enable-background="new 0 0 47.607 47.607" viewBox="0 0 47.607 47.607" width="288" height="288"><path d="M17.991 40.976c0 3.662-2.969 6.631-6.631 6.631l0 0c-3.662 0-6.631-2.969-6.631-6.631V6.631C4.729 2.969 7.698 0 11.36 0l0 0c3.662 0 6.631 2.969 6.631 6.631V40.976zM42.877 40.976c0 3.662-2.969 6.631-6.631 6.631l0 0c-3.662 0-6.631-2.969-6.631-6.631V6.631C29.616 2.969 32.585 0 36.246 0l0 0c3.662 0 6.631 2.969 6.631 6.631V40.976z" fill="#59a7f5" class="color000 svgShape"></path></svg></g></svg>