<svg id="Layer_1" enable-background="new 0 0 512 512" height="512" viewBox="0 0 512 512" width="512" xmlns="http://www.w3.org/2000/svg"><path d="m512 267.055c0 59.396-32 85.6-32 120 0 30.195-51.7 66.155-81.02 75.03-16.815 5.086-34.545 4.457-44.29-10.16-7.89-11.84-6.48-28.85-.84-52.2-11.473 14.411-32.602 27.33-41.85 27.33-7.378 0-38.435-12.136-56-31.8-19.39 21.7-49.74 30.65-51.6 31.18-3.18.91-6.57.81-9.69-.28-11.855-4.184-26.534-13.836-36.56-26.43 5.64 23.35 7.05 40.36-.84 52.2-9.736 14.604-27.523 15.257-44.29 10.16-29.25-8.854-81.02-44.865-81.02-75.03 0-34.376-32-60.623-32-120 0-62.567 58.413-120.493 74.69-144.88 13.56-20.35 32.8-25.02 46.75-24.34 38.035-43.951 89.817-58.001 134.56-47.35 44.696-10.653 96.487 3.355 134.56 47.35 13.95-.68 33.19 3.99 46.75 24.34 16.192 24.261 74.69 82.207 74.69 144.88z" fill="#f2a661"/><path d="m415.1 286.865c-2.285 14.623-40.247 43.773-46.33 70.01-.03 21-8.86 39.6-25.63 53.9-6.67 5.689-22.45 16.28-31.14 16.28-7.865 0-38.71-12.44-56-31.79-19.39 21.7-49.74 30.64-51.6 31.17-3.18.91-6.57.81-9.69-.28-1.35-.47-13.61-4.94-25.85-15.38-16.77-14.3-25.6-32.9-25.63-53.9-6.076-26.206-44.061-55.493-46.33-70.01-7.02-44.31-4.7-80.64 7.1-110.91.023-1.431-.482 2.994 6.59-53.64 1.09-8.71.831-14.703 6.85-19.7 37.192-46.206 90.023-63.684 138.56-52.13 48.43-11.543 101.286 5.821 138.56 52.13 5.911 4.907 5.672 10.287 6.85 19.7 7.076 56.664 6.567 52.211 6.59 53.64 11.8 30.27 14.12 66.6 7.1 110.91z" fill="#ffaa64"/><g fill="#ffbd7b"><path d="m147.19 461.155c-3.82 2.08-8.69 3.59-14.84 3.81-5.272-28.118-12.105-19.142 14.84-3.81z"/><path d="m379.65 464.965c-6.16-.22-11.03-1.73-14.85-3.8 27.022-15.468 20.101-24.206 14.85 3.8z"/><path d="m401.41 122.315c-44.791-26.085-99.079-33.242-145.41-24.83-46.709-8.472-100.868-1.109-145.41 24.83 1.09-8.71.831-14.703 6.85-19.7 36.872-45.809 89.701-63.76 138.56-52.13 48.299-11.512 101.329 5.875 138.56 52.13 5.911 4.906 5.672 10.286 6.85 19.7z"/></g><path d="m367.81 344.615c-14.64-95.16-49.14-122.4-64.78-134.06-14.537-110.651-14.599-74.552-32.72-110.66-5.883-11.766-22.735-11.77-28.62 0-14.082 28.163-15.808 13.038-22.24 44.04-3.814 18.365-8.039 48.038-10.48 66.62-41.055 30.62-56.82 82.208-64.78 134.06-3.84 24.91 3.85 47.03 22.22 63.98 12.98 11.98 26.77 17.02 28.3 17.56 3.12 1.09 6.51 1.19 9.69.28 1.86-.53 32.21-9.48 51.6-31.18 19.39 21.7 49.74 30.65 51.6 31.18 3.331.948 6.691.772 9.69-.28 1.53-.54 15.32-5.58 28.3-17.56 18.37-16.95 26.06-39.07 22.22-63.98zm-56.53 49.23c-11.71-4.53-39.28-17.48-39.28-38.79 0-18.325-26.214-22.221-31.36-4.49-.42 1.42-.64 2.93-.64 4.49 0 21.32-27.6 34.27-39.28 38.79-17.847-9.242-28.014-24.077-24.91-44.36 12.93-84.01 41.1-104.95 53.12-113.9 5.657-4.191 10.046-7.45 10.95-14.54 4.05-32.3 10.12-71.02 13.3-80.65.96-1.06 1.9-2.18 2.82-3.34.92 1.16 1.86 2.28 2.82 3.34 3.18 9.63 9.25 48.35 13.3 80.65.903 7.083 5.293 10.35 10.95 14.54 12.02 8.95 40.19 29.89 53.12 113.9 3.104 20.179-7.034 35.095-24.91 44.36z" fill="#f2f2f2"/><path d="m311.28 393.845c-11.71-4.53-39.28-17.48-39.28-38.79 0-8.84-7.16-16-16-16s-16 7.16-16 16c0 21.32-27.6 34.27-39.28 38.79-17.884-9.261-28.013-24.111-24.91-44.36 12.93-84.01 41.1-104.95 53.12-113.9 5.657-4.191 10.046-7.45 10.95-14.54 4.05-32.3 10.12-71.02 13.3-80.65.96-1.06 1.9-2.18 2.82-3.34.92 1.16 1.86 2.28 2.82 3.34 3.18 9.63 9.25 48.35 13.3 80.65.903 7.083 5.293 10.35 10.95 14.54 12.02 8.95 40.19 29.89 53.12 113.9 3.104 20.179-7.034 35.095-24.91 44.36z" fill="#f2f2f2"/><path d="m367.81 344.615c-.64-4.17-1.32-8.21-2.04-12.12-4.98 9.42-13.29 23.64-29.77 35.61-42.245 30.645-64.337-6.418-80-56-15.598 49.376-37.664 86.712-80 56-16.48-11.97-24.79-26.19-29.77-35.61-.72 3.91-1.4 7.95-2.04 12.12-3.84 24.91 3.85 47.03 22.22 63.98 12.98 11.98 26.77 17.02 28.3 17.56 3.12 1.09 6.51 1.19 9.69.28 1.86-.53 32.21-9.48 51.6-31.18 19.39 21.7 49.74 30.65 51.6 31.18 3.18.91 6.57.81 9.69-.28 1.53-.54 15.32-5.58 28.3-17.56 18.37-16.95 26.06-39.07 22.22-63.98z" fill="#ece2e2"/><path d="m311.52 310.935c-.42 1.68-10.8 41.43-51.64 51.64-2.539.64-5.22.64-7.76 0-40.84-10.21-51.22-49.96-51.64-51.64-2.435-9.662 4.339-23.329 12.21-31.2 16.933-16.933 69.652-16.968 86.62 0 9.22 9.22 14.347 22.721 12.21 31.2z" fill="#999"/><circle cx="172" cy="199.05" fill="#999" r="20"/><circle cx="340" cy="199.05" fill="#999" r="20"/></svg>