<svg id="SvgjsSvg1001" width="288" height="288" xmlns="http://www.w3.org/2000/svg" version="1.1" xmlns:xlink="http://www.w3.org/1999/xlink" xmlns:svgjs="http://svgjs.com/svgjs"><defs id="SvgjsDefs1002"></defs><g id="SvgjsG1008" transform="matrix(0.9167,0,0,0.9167,11.995200000000011,11.995200000000011)"><svg xmlns="http://www.w3.org/2000/svg" enable-background="new 0 0 512 512" viewBox="0 0 512 512" width="288" height="288"><path d="M256 248.831c-37.504 0-68.016 30.617-68.016 68.251 0 37.634 30.512 68.251 68.016 68.251 37.504 0 68.016-30.618 68.016-68.251S293.504 248.831 256 248.831zM256 365.333c-26.476 0-48.016-21.646-48.016-48.251 0-26.606 21.539-48.251 48.016-48.251s48.016 21.645 48.016 48.251S282.476 365.333 256 365.333zM256 135.436c-21.602 0-39.176 18.671-39.176 41.62 0 22.949 17.574 41.62 39.176 41.62s39.176-18.67 39.176-41.62C295.176 154.106 277.602 135.436 256 135.436zM256 198.675c-10.574 0-19.176-9.698-19.176-21.62 0-11.921 8.602-21.62 19.176-21.62s19.176 9.698 19.176 21.62S266.574 198.675 256 198.675zM341.639 174.96c-21.602 0-39.176 18.67-39.176 41.62 0 22.949 17.574 41.619 39.176 41.619s39.176-18.67 39.176-41.619C380.815 193.63 363.24 174.96 341.639 174.96zM341.639 238.199c-10.574 0-19.176-9.698-19.176-21.619 0-11.921 8.602-21.62 19.176-21.62 10.574 0 19.176 9.698 19.176 21.62C360.814 228.501 352.212 238.199 341.639 238.199zM170.361 174.96c-21.602 0-39.176 18.67-39.176 41.62 0 22.949 17.574 41.619 39.176 41.619s39.176-18.671 39.176-41.619C209.537 193.631 191.963 174.96 170.361 174.96zM170.361 238.199c-10.574 0-19.176-9.698-19.176-21.619 0-11.921 8.602-21.62 19.176-21.62 10.574 0 19.176 9.698 19.176 21.62C189.537 228.501 180.935 238.199 170.361 238.199z" fill="#59a7f5" class="color000 svgShape"></path><path d="M452.783,123H389V59.217C389,26.565,362.436,0,329.783,0H182.217C149.564,0,123,26.565,123,59.217V123H59.217
			C26.565,123,0,149.564,0,182.217v147.566C0,362.435,26.565,389,59.217,389H123v63.783C123,485.435,149.564,512,182.217,512
			h147.566C362.436,512,389,485.435,389,452.783V389h63.783C485.435,389,512,362.435,512,329.783V182.217
			C512,149.564,485.435,123,452.783,123z M492,329.783C492,351.407,474.407,369,452.783,369H379c-5.523,0-10,4.477-10,10v73.783
			C369,474.407,351.407,492,329.783,492H182.217C160.593,492,143,474.407,143,452.783V379c0-5.523-4.477-10-10-10H59.217
			C37.593,369,20,351.407,20,329.783V182.217C20,160.593,37.593,143,59.217,143H133c5.523,0,10-4.477,10-10V59.217
			C143,37.593,160.593,20,182.217,20h147.566C351.407,20,369,37.593,369,59.217V133c0,5.523,4.477,10,10,10h73.783
			C474.407,143,492,160.593,492,182.217V329.783z" fill="#59a7f5" class="color000 svgShape"></path><path d="M304 442.783h-65.953c-5.523 0-10 4.477-10 10s4.477 10 10 10H304c5.523 0 10-4.477 10-10C314 447.26 309.523 442.783 304 442.783zM208.324 442.783H208c-5.523 0-10 4.477-10 10s4.477 10 10 10h.324c5.523 0 10-4.477 10-10C218.324 447.26 213.847 442.783 208.324 442.783zM304 49.217h-.324c-5.523 0-10 4.477-10 10 0 5.523 4.477 10 10 10H304c5.523 0 10-4.477 10-10C314 53.694 309.523 49.217 304 49.217zM273.953 49.217H208c-5.523 0-10 4.477-10 10 0 5.523 4.477 10 10 10h65.953c5.523 0 10-4.477 10-10C283.953 53.694 279.476 49.217 273.953 49.217z" fill="#59a7f5" class="color000 svgShape"></path></svg></g></svg>