<svg id="SvgjsSvg1001" width="288" height="288" xmlns="http://www.w3.org/2000/svg" version="1.1" xmlns:xlink="http://www.w3.org/1999/xlink" xmlns:svgjs="http://svgjs.com/svgjs"><defs id="SvgjsDefs1002"></defs><g id="SvgjsG1008" transform="matrix(0.9167,0,0,0.9167,11.995225421142578,11.995200000000011)"><svg xmlns="http://www.w3.org/2000/svg" enable-background="new 0 0 469.333 469.333" viewBox="0 0 469.333 469.333" width="288" height="288"><path d="M458.667,224h-53.333v-53.333c0-5.896-4.771-10.667-10.667-10.667c-5.896,0-10.667,4.771-10.667,10.667V224h-53.333
				c-5.896,0-10.667,4.771-10.667,10.667s4.771,10.667,10.667,10.667H384v53.333c0,5.896,4.771,10.667,10.667,10.667
				c5.896,0,10.667-4.771,10.667-10.667v-53.333h53.333c5.896,0,10.667-4.771,10.667-10.667S464.563,224,458.667,224z" fill="#59a7f5" class="color000 svgShape"></path><path d="M352,266.667h-21.333c-17.646,0-32-14.354-32-32s14.354-32,32-32H352c5.896,0,10.667-4.771,10.667-10.667V41.812
				C362.667,18.76,343.906,0,320.854,0c-9.979,0-19.646,3.573-27.208,10.073L156.052,128H42.667C19.135,128,0,147.135,0,170.667v128
				c0,23.531,19.135,42.667,42.667,42.667h113.385L293.635,459.26c7.573,6.5,17.24,10.073,27.219,10.073
				c23.052,0,41.813-18.76,41.813-41.813V277.333C362.667,271.437,357.896,266.667,352,266.667z" fill="#59a7f5" class="color000 svgShape"></path></svg></g></svg>